<?xml version="1.0" encoding="UTF-8"?>
<svg id="Layer_1" xmlns="http://www.w3.org/2000/svg" version="1.1" viewBox="0 0 201 108">
  <path d="M48.7,12.9h0c-.5,0-1,.3-1.2.7L9.4,95.9l2.3,1.1L48.6,17.3l18.2,40.5h-18.8v2.6h19.9l16.4,36.6,2.3-1L49.8,13.7c-.2-.5-.7-.8-1.2-.8Z"/>
  <path d="M118.7,33.7c0-11.6-6.3-17.1-11.6-19.7-5.6-2.8-11.2-2.8-11.4-2.8h-31.1v2.6h31.1c0,0,5.3,0,10.4,2.6,6.7,3.3,10.1,9.1,10.1,17.4,0,18-13.4,24-19.5,24h-11.1v2.6h10.2l15.1,36.6,2.4-1-14.8-35.7c8.7-1.1,20.2-9.6,20.2-26.5Z"/>
  <path d="M132.2,66.2c-.3,0-.6,0-.9-.3s-.5-.4-.6-.7l-.9.3c.2.5.4.9.9,1.1.4.3.9.4,1.5.4s1.2-.2,1.6-.5c.4-.3.6-.8.6-1.4s0-.4,0-.5c0-.2-.1-.3-.2-.4,0-.1-.2-.2-.3-.3s-.2-.2-.3-.3c0,0-.2-.1-.4-.2-.2,0-.3-.1-.4-.2,0,0-.2,0-.4-.2-.3-.1-.5-.2-.7-.2-.1,0-.3-.2-.4-.3s-.2-.3-.2-.4c0-.2,0-.4.3-.6.2-.1.4-.2.7-.2s.5,0,.7.2c.2.1.3.3.4.5l.9-.3c-.1-.4-.3-.7-.7-.9s-.8-.3-1.3-.3-1.1.2-1.5.5c-.4.3-.5.7-.5,1.2s0,.4.1.6.2.3.3.4c.1.1.2.2.4.3.2.1.4.2.5.2s.3.1.5.2c.2,0,.3.1.4.2.1,0,.2,0,.4.2s.3.2.3.2.1.2.2.3,0,.2,0,.4c0,.3-.1.6-.3.7-.2.2-.5.3-.8.3Z"/>
  <polygon points="140 66.1 136.8 66.1 136.8 64.2 138.7 64.2 138.7 63.3 136.8 63.3 136.8 61.5 139.8 61.5 139.8 60.6 135.8 60.6 135.8 67 140 67 140 66.1"/>
  <path d="M142.3,64.4h1.4l1.3,2.6h1.1l-1.3-2.7c.5-.1.8-.4,1-.7s.4-.7.4-1.1-.2-1-.5-1.4c-.3-.4-.9-.5-1.6-.5h-2.7v6.4h1v-2.6ZM142.3,61.6h1.8c.4,0,.7,0,.8.3.2.2.2.4.2.7s0,.5-.3.7c-.2.2-.4.3-.8.3h-1.8v-2Z"/>
  <path d="M150.3,67l2.2-6.4h-1l-1.4,4.5c0,.3-.2.5-.2.7,0-.2-.1-.5-.2-.7l-1.5-4.5h-1l2.2,6.4h.9Z"/>
  <rect x="153.8" y="60.6" width=".9" height="6.4"/>
  <path d="M159,67.1c1.1,0,1.8-.5,2.2-1.4l-.9-.3c-.3.5-.8.8-1.3.8s-1-.2-1.2-.7-.4-1-.4-1.7,0-.6,0-.8.1-.5.3-.8c.1-.2.3-.4.5-.6.2-.1.5-.2.8-.2s.6,0,.8.2c.2.1.4.3.5.6l.9-.4c-.1-.4-.4-.7-.8-.9-.4-.2-.8-.4-1.4-.4s-.9.1-1.2.3c-.4.2-.6.5-.8.8-.2.3-.3.7-.4,1.1,0,.4-.1.8-.1,1.1s0,.6,0,.9c0,.3.1.6.3.9.1.3.3.5.5.8.2.2.5.4.8.5s.7.2,1,.2Z"/>
  <rect x="162.6" y="60.6" width=".9" height="6.4"/>
  <path d="M170.3,62c-.1-.3-.3-.5-.5-.8s-.5-.4-.8-.5-.7-.2-1.1-.2-.8,0-1.1.2c-.3.1-.6.3-.8.5-.2.2-.4.5-.5.8-.1.3-.2.6-.3.9,0,.3,0,.6,0,.9s0,.6,0,.9c0,.3.2.6.3.9.1.3.3.5.5.8.2.2.5.4.8.5.3.1.7.2,1.1.2s.8,0,1.1-.2.6-.3.8-.5c.2-.2.4-.5.5-.8.1-.3.2-.6.3-.9,0-.3,0-.6,0-.9s0-.6,0-.9c0-.3-.2-.6-.3-.9ZM169.6,64.7c0,.3-.2.5-.3.8-.1.2-.3.4-.6.6-.2.1-.5.2-.8.2s-.6,0-.8-.2c-.2-.1-.4-.3-.6-.6s-.2-.5-.3-.8c0-.3,0-.6,0-.8s0-.6,0-.8c0-.3.2-.5.3-.8.1-.2.3-.4.6-.6s.5-.2.8-.2.6,0,.8.2c.2.1.4.3.6.6.1.2.2.5.3.8,0,.3,0,.6,0,.8s0,.6,0,.8Z"/>
  <path d="M174.2,66.2c-.3,0-.6,0-.9-.3s-.5-.4-.6-.7l-.9.3c.2.5.4.9.9,1.1.4.3.9.4,1.5.4s1.2-.2,1.6-.5c.4-.3.6-.8.6-1.4s0-.4,0-.5c0-.2-.1-.3-.2-.4,0-.1-.2-.2-.3-.3s-.2-.2-.3-.3c0,0-.2-.1-.4-.2-.2,0-.3-.1-.4-.2,0,0-.2,0-.4-.2-.3-.1-.5-.2-.7-.2-.1,0-.3-.2-.4-.3s-.2-.3-.2-.4c0-.2,0-.4.3-.6.2-.1.4-.2.7-.2s.5,0,.7.2c.2.1.3.3.4.5l.9-.3c-.1-.4-.3-.7-.7-.9s-.8-.3-1.3-.3-1.1.2-1.5.5c-.4.3-.5.7-.5,1.2s0,.4.1.6.2.3.3.4c.1.1.2.2.4.3.2.1.4.2.5.2s.3.1.5.2c.2,0,.3.1.4.2.1,0,.2,0,.4.2s.3.2.3.2.1.2.2.3,0,.2,0,.4c0,.3-.1.6-.3.7-.2.2-.5.3-.8.3Z"/>
  <rect x="130.2" y="75.3" width=".9" height="6.4"/>
  <path d="M137.8,75.3h-.9v4.3c0,.1,0,.3,0,.5-.1-.2-.2-.4-.3-.5l-2.7-4.3h-1v6.4h1v-4.3s0-.2,0-.5c0,.2.2.3.3.5l2.8,4.3h.9v-6.4Z"/>
  <path d="M144.4,78.5c0-.4,0-.8-.2-1.2s-.3-.7-.5-1-.5-.6-1-.7c-.4-.2-.9-.3-1.4-.3h-1.8v6.4h1.8c.6,0,1,0,1.5-.3.4-.2.7-.4,1-.8s.4-.7.5-1c.1-.4.2-.7.2-1.1ZM143.3,79.3c0,.3-.2.5-.3.7-.1.2-.3.4-.6.5-.3.1-.6.2-.9.2h-1v-4.6h1.1c.6,0,1.1.2,1.4.7s.5,1,.5,1.6,0,.6,0,.8Z"/>
  <path d="M149.7,79.2c0,.6-.1,1-.4,1.3s-.6.4-1.1.4-.8-.1-1.1-.4c-.3-.2-.4-.7-.4-1.3v-4h-.9v4c0,.9.2,1.5.7,1.9.4.4,1,.6,1.7.6s1.3-.2,1.8-.6c.4-.4.6-1,.6-1.9v-4h-.9v4Z"/>
  <path d="M156.3,78.9c0-.1-.2-.2-.3-.3s-.2-.2-.3-.3c0,0-.2-.1-.4-.2-.2,0-.3-.1-.4-.2,0,0-.2,0-.4-.2-.3-.1-.5-.2-.7-.2-.1,0-.3-.2-.4-.3s-.2-.3-.2-.4c0-.2,0-.4.3-.6.2-.1.4-.2.7-.2s.5,0,.7.2c.2.1.3.3.4.5l.9-.3c-.1-.4-.3-.7-.7-.9s-.8-.3-1.3-.3-1.1.2-1.5.5c-.4.3-.5.7-.5,1.2s0,.4.1.6.2.3.3.4c.1.1.2.2.4.3.2.1.4.2.5.2s.3.1.5.2c.2,0,.3.1.4.2.1,0,.2,0,.4.2s.3.2.3.2.1.2.2.3,0,.2,0,.4c0,.3-.1.6-.3.7-.2.2-.5.3-.8.3s-.6,0-.9-.3-.5-.4-.6-.7l-.9.3c.2.5.4.9.9,1.1.4.3.9.4,1.5.4s1.2-.2,1.6-.5c.4-.3.6-.8.6-1.4s0-.4,0-.5c0-.2-.1-.3-.2-.4Z"/>
  <polygon points="157.5 76.2 159.4 76.2 159.4 81.6 160.3 81.6 160.3 76.2 162.1 76.2 162.1 75.3 157.5 75.3 157.5 76.2"/>
  <path d="M168.2,77.1c0-.5-.2-1-.5-1.4-.3-.4-.9-.5-1.6-.5h-2.7v6.4h1v-2.6h1.4l1.3,2.6h1.1l-1.3-2.7c.5-.1.8-.4,1-.7s.4-.7.4-1.1ZM166.9,77.8c-.2.2-.4.3-.8.3h-1.8v-2h1.8c.4,0,.7,0,.8.3.2.2.2.4.2.7s0,.5-.3.7Z"/>
  <rect x="169.7" y="75.3" width=".9" height="6.4"/>
  <path d="M174.3,75.3l-2.3,6.4h1l.5-1.5h2.6l.5,1.5h1l-2.3-6.4h-1ZM173.8,79.3l.8-2.2c0-.3.2-.5.2-.7,0,.2.1.4.2.7l.8,2.2h-2Z"/>
  <polygon points="179.9 75.3 178.9 75.3 178.9 81.6 183 81.6 183 80.7 179.9 80.7 179.9 75.3"/>
  <polygon points="185.1 78.8 187 78.8 187 77.9 185.1 77.9 185.1 76.2 188.1 76.2 188.1 75.3 184.1 75.3 184.1 81.6 188.3 81.6 188.3 80.8 185.1 80.8 185.1 78.8"/>
  <path d="M193.8,79.3c0-.2-.1-.3-.2-.4,0-.1-.2-.2-.3-.3s-.2-.2-.3-.3c0,0-.2-.1-.4-.2-.2,0-.3-.1-.4-.2,0,0-.2,0-.4-.2-.3-.1-.5-.2-.7-.2-.1,0-.3-.2-.4-.3s-.2-.3-.2-.4c0-.2,0-.4.3-.6.2-.1.4-.2.7-.2s.5,0,.7.2c.2.1.3.3.4.5l.9-.3c-.1-.4-.3-.7-.7-.9s-.8-.3-1.3-.3-1.1.2-1.5.5c-.4.3-.5.7-.5,1.2s0,.4.1.6.2.3.3.4c.1.1.2.2.4.3.2.1.4.2.5.2s.3.1.5.2c.2,0,.3.1.4.2.1,0,.2,0,.4.2s.3.2.3.2.1.2.2.3,0,.2,0,.4c0,.3-.1.6-.3.7-.2.2-.5.3-.8.3s-.6,0-.9-.3-.5-.4-.6-.7l-.9.3c.2.5.4.9.9,1.1.4.3.9.4,1.5.4s1.2-.2,1.6-.5c.4-.3.6-.8.6-1.4s0-.4,0-.5Z"/>
  <path d="M134.1,93.5c0-.1-.2-.2-.3-.3s-.2-.2-.3-.3c0,0-.2-.1-.4-.2-.2,0-.3-.1-.4-.2,0,0-.2,0-.4-.2-.3-.1-.5-.2-.7-.2-.1,0-.3-.2-.4-.3s-.2-.3-.2-.4c0-.2,0-.4.3-.6.2-.1.4-.2.7-.2s.5,0,.7.2c.2.1.3.3.4.5l.9-.3c-.1-.4-.3-.7-.7-.9s-.8-.3-1.3-.3-1.1.2-1.5.5c-.4.3-.5.7-.5,1.2s0,.4.1.6.2.3.3.4c.1.1.2.2.4.3.2.1.4.2.5.2s.3.1.5.2c.2,0,.3.1.4.2.1,0,.2,0,.4.2s.3.2.3.2.1.2.2.3,0,.2,0,.4c0,.3-.1.6-.3.7-.2.2-.5.3-.8.3s-.6,0-.9-.3-.5-.4-.6-.7l-.9.3c.2.5.4.9.9,1.1.4.3.9.4,1.5.4s1.2-.2,1.6-.5c.4-.3.6-.8.6-1.4s0-.4,0-.5c0-.2-.1-.3-.2-.4Z"/>
  <path d="M136,95c-.2,0-.4,0-.5.2-.1.1-.2.3-.2.5s0,.3.2.5c.1.1.3.2.5.2s.4,0,.5-.2.2-.3.2-.5,0-.3-.2-.5-.3-.2-.5-.2Z"/>
  <path d="M139.8,89.9l-2.3,6.4h1l.5-1.5h2.6l.5,1.5h1l-2.3-6.4h-1ZM139.3,94l.8-2.2c0-.3.2-.5.2-.7,0,.2.1.4.2.7l.8,2.2h-2Z"/>
  <path d="M144.6,95c-.2,0-.4,0-.5.2-.1.1-.2.3-.2.5s0,.3.2.5c.1.1.3.2.5.2s.4,0,.5-.2.2-.3.2-.5,0-.3-.2-.5-.3-.2-.5-.2Z"/>
</svg>